<mxfile host="app.diagrams.net" modified="2024-01-19T16:30:18.418Z" agent="Mozilla/5.0 (X11; Linux x86_64; rv:121.0) Gecko/20100101 Firefox/121.0" etag="DFpz9we4Gh1ENup7TYYr" version="22.1.21" type="device">
  <diagram name="Page-1" id="2YBvvXClWsGukQMizWep">
    <mxGraphModel dx="744" dy="399" grid="1" gridSize="10" guides="1" tooltips="1" connect="1" arrows="1" fold="1" page="1" pageScale="1" pageWidth="850" pageHeight="1100" math="0" shadow="0">
      <root>
        <mxCell id="0" />
        <mxCell id="1" parent="0" />
        <mxCell id="aM9ryv3xv72pqoxQDRHE-5" value="server" style="shape=umlLifeline;perimeter=lifelinePerimeter;whiteSpace=wrap;html=1;container=0;dropTarget=0;collapsible=0;recursiveResize=0;outlineConnect=0;portConstraint=eastwest;newEdgeStyle={&quot;edgeStyle&quot;:&quot;elbowEdgeStyle&quot;,&quot;elbow&quot;:&quot;vertical&quot;,&quot;curved&quot;:0,&quot;rounded&quot;:0};" parent="1" vertex="1">
          <mxGeometry x="200" y="40" width="100" height="300" as="geometry" />
        </mxCell>
        <mxCell id="aM9ryv3xv72pqoxQDRHE-6" value="" style="html=1;points=[];perimeter=orthogonalPerimeter;outlineConnect=0;targetShapes=umlLifeline;portConstraint=eastwest;newEdgeStyle={&quot;edgeStyle&quot;:&quot;elbowEdgeStyle&quot;,&quot;elbow&quot;:&quot;vertical&quot;,&quot;curved&quot;:0,&quot;rounded&quot;:0};" parent="aM9ryv3xv72pqoxQDRHE-5" vertex="1">
          <mxGeometry x="45" y="80" width="10" height="170" as="geometry" />
        </mxCell>
        <mxCell id="EyiGyx5sTus0gzihgp87-27" value="Metamask extension user" style="shape=umlLifeline;perimeter=lifelinePerimeter;whiteSpace=wrap;html=1;container=0;dropTarget=0;collapsible=0;recursiveResize=0;outlineConnect=0;portConstraint=eastwest;newEdgeStyle={&quot;edgeStyle&quot;:&quot;elbowEdgeStyle&quot;,&quot;elbow&quot;:&quot;vertical&quot;,&quot;curved&quot;:0,&quot;rounded&quot;:0};" vertex="1" parent="1">
          <mxGeometry x="30" y="40" width="100" height="300" as="geometry" />
        </mxCell>
        <mxCell id="EyiGyx5sTus0gzihgp87-28" value="" style="html=1;points=[];perimeter=orthogonalPerimeter;outlineConnect=0;targetShapes=umlLifeline;portConstraint=eastwest;newEdgeStyle={&quot;edgeStyle&quot;:&quot;elbowEdgeStyle&quot;,&quot;elbow&quot;:&quot;vertical&quot;,&quot;curved&quot;:0,&quot;rounded&quot;:0};" vertex="1" parent="EyiGyx5sTus0gzihgp87-27">
          <mxGeometry x="45" y="80" width="10" height="170" as="geometry" />
        </mxCell>
        <mxCell id="EyiGyx5sTus0gzihgp87-29" value="" style="endArrow=classic;html=1;rounded=0;" edge="1" parent="1" source="EyiGyx5sTus0gzihgp87-28" target="aM9ryv3xv72pqoxQDRHE-6">
          <mxGeometry width="50" height="50" relative="1" as="geometry">
            <mxPoint x="160" y="210" as="sourcePoint" />
            <mxPoint x="220" y="150" as="targetPoint" />
            <Array as="points">
              <mxPoint x="125" y="140" />
              <mxPoint x="170" y="140" />
            </Array>
          </mxGeometry>
        </mxCell>
        <mxCell id="EyiGyx5sTus0gzihgp87-30" value="nonce request" style="edgeLabel;html=1;align=center;verticalAlign=middle;resizable=0;points=[];" vertex="1" connectable="0" parent="EyiGyx5sTus0gzihgp87-29">
          <mxGeometry x="0.3186" y="-1" relative="1" as="geometry">
            <mxPoint x="-27" y="-11" as="offset" />
          </mxGeometry>
        </mxCell>
        <mxCell id="EyiGyx5sTus0gzihgp87-40" value="" style="endArrow=classic;html=1;rounded=0;dashed=1;" edge="1" parent="1">
          <mxGeometry width="50" height="50" relative="1" as="geometry">
            <mxPoint x="245" y="190" as="sourcePoint" />
            <mxPoint x="85" y="190" as="targetPoint" />
            <Array as="points">
              <mxPoint x="130" y="190" />
            </Array>
          </mxGeometry>
        </mxCell>
        <mxCell id="EyiGyx5sTus0gzihgp87-41" value="current nonce" style="edgeLabel;html=1;align=center;verticalAlign=middle;resizable=0;points=[];" vertex="1" connectable="0" parent="EyiGyx5sTus0gzihgp87-40">
          <mxGeometry x="0.3186" y="-1" relative="1" as="geometry">
            <mxPoint x="20" y="-11" as="offset" />
          </mxGeometry>
        </mxCell>
        <mxCell id="EyiGyx5sTus0gzihgp87-42" value="" style="endArrow=classic;html=1;rounded=0;" edge="1" parent="1" source="EyiGyx5sTus0gzihgp87-28" target="aM9ryv3xv72pqoxQDRHE-6">
          <mxGeometry width="50" height="50" relative="1" as="geometry">
            <mxPoint x="80" y="230" as="sourcePoint" />
            <mxPoint x="240" y="230" as="targetPoint" />
            <Array as="points">
              <mxPoint x="125" y="230" />
            </Array>
          </mxGeometry>
        </mxCell>
        <mxCell id="EyiGyx5sTus0gzihgp87-43" value="signed nonce" style="edgeLabel;html=1;align=center;verticalAlign=middle;resizable=0;points=[];" vertex="1" connectable="0" parent="EyiGyx5sTus0gzihgp87-42">
          <mxGeometry x="0.3186" y="-1" relative="1" as="geometry">
            <mxPoint x="-20" y="-11" as="offset" />
          </mxGeometry>
        </mxCell>
        <mxCell id="EyiGyx5sTus0gzihgp87-44" value="" style="endArrow=classic;html=1;rounded=0;dashed=1;" edge="1" parent="1" source="aM9ryv3xv72pqoxQDRHE-6" target="EyiGyx5sTus0gzihgp87-28">
          <mxGeometry width="50" height="50" relative="1" as="geometry">
            <mxPoint x="250" y="270" as="sourcePoint" />
            <mxPoint x="90" y="270" as="targetPoint" />
            <Array as="points">
              <mxPoint x="135" y="270" />
            </Array>
          </mxGeometry>
        </mxCell>
        <mxCell id="EyiGyx5sTus0gzihgp87-45" value="verification token" style="edgeLabel;html=1;align=center;verticalAlign=middle;resizable=0;points=[];" vertex="1" connectable="0" parent="EyiGyx5sTus0gzihgp87-44">
          <mxGeometry x="0.3186" y="-1" relative="1" as="geometry">
            <mxPoint x="20" y="-11" as="offset" />
          </mxGeometry>
        </mxCell>
      </root>
    </mxGraphModel>
  </diagram>
</mxfile>
